<?xml version="1.0" encoding="UTF-8" standalone="no"?>
<svg
   xmlns:dc="http://purl.org/dc/elements/1.1/"
   xmlns:cc="http://creativecommons.org/ns#"
   xmlns:rdf="http://www.w3.org/1999/02/22-rdf-syntax-ns#"
   xmlns:svg="http://www.w3.org/2000/svg"
   xmlns="http://www.w3.org/2000/svg"
   xmlns:sodipodi="http://sodipodi.sourceforge.net/DTD/sodipodi-0.dtd"
   xmlns:inkscape="http://www.inkscape.org/namespaces/inkscape"
   sodipodi:docname="personal-icon.svg"
   inkscape:version="1.0 (4035a4fb49, 2020-05-01)"
   id="svg400"
   version="1.1"
   viewBox="0 0 12.7 12.7"
   height="48"
   width="48">
  <defs
     id="defs394">
    <filter
       height="1.0050884"
       y="-0.0025442061"
       width="1.0045425"
       x="-0.0022712643"
       id="filter1297"
       style="color-interpolation-filters:sRGB"
       inkscape:collect="always">
      <feGaussianBlur
         id="feGaussianBlur1299"
         stdDeviation="0.016855706"
         inkscape:collect="always" />
    </filter>
  </defs>
  <sodipodi:namedview
     inkscape:snap-grids="true"
     inkscape:window-maximized="1"
     inkscape:window-y="-8"
     inkscape:window-x="-8"
     inkscape:window-height="1057"
     inkscape:window-width="1920"
     units="px"
     showgrid="false"
     inkscape:document-rotation="0"
     inkscape:current-layer="layer2"
     inkscape:document-units="mm"
     inkscape:cy="28.006321"
     inkscape:cx="13.910707"
     inkscape:zoom="24.243516"
     inkscape:pageshadow="2"
     inkscape:pageopacity="0.0"
     borderopacity="1.0"
     bordercolor="#666666"
     pagecolor="#ffffff"
     id="base" />
  <metadata
     id="metadata397">
    <rdf:RDF>
      <cc:Work
         rdf:about="">
        <dc:format>image/svg+xml</dc:format>
        <dc:type
           rdf:resource="http://purl.org/dc/dcmitype/StillImage" />
        <dc:title></dc:title>
      </cc:Work>
    </rdf:RDF>
  </metadata>
  <g
     id="layer1"
     inkscape:groupmode="layer"
     inkscape:label="Layer 1">
    <rect
       y="-0.099218808"
       x="-0.099218771"
       height="13.014193"
       width="13.014193"
       id="rect1253"
       style="fill:none;stroke:none;stroke-width:0.165;stroke-linecap:round;stroke-linejoin:bevel;stroke-miterlimit:4;stroke-dasharray:none" />
  </g>
  <g
     style="filter:url(#filter1297)"
     inkscape:label="Layer 2"
     id="layer2"
     inkscape:groupmode="layer">
    <text
       transform="scale(1.04634,0.95571225)"
       id="text1307"
       y="13.115491"
       x="1.0754507"
       style="font-size:23.6241px;line-height:1.25;font-family:Gabriola;-inkscape-font-specification:Gabriola;fill:none;stroke:#7137c8;stroke-width:0.276844"
       xml:space="preserve"><tspan
         style="fill:none;stroke:#7137c8;stroke-width:0.276844"
         y="13.115491"
         x="1.0754507"
         id="tspan1305"
         sodipodi:role="line">b</tspan></text>
    <path
       transform="scale(0.26458333)"
       d="M 11.0625,-1.0625 -0.375,-0.375 V 48.8125 L 26.25,49.4375 9.25,48 7.5625,45 8,43.0625 8.375,40.75 8.6875,38.0625 9.0625,34.75 9.25,32.0625 9.4375,28 9.75,23.1875 l 0.3125,-6.375 0.0625,-3.5 0.1875,-3.1875 0.3125,-4 0.25,-4.6875 z"
       style="fill:#7137c8;fill-opacity:1;stroke:#7137c8;stroke-width:0.999999px;stroke-linecap:butt;stroke-linejoin:miter;stroke-opacity:1"
       id="path1313" />
    <path
       sodipodi:nodetypes="ccccccccc"
       id="path1315"
       d="M 4.7893098,-0.43680593 4.2363144,4.3579315 3.9325476,8.3758336 C 5.4381291,5.417659 8.0973663,2.7137466 10.055381,5.5243343 c 0,0 0.609783,0.8777097 0.409209,2.7622141 -0.355166,2.1377086 -2.1496962,3.9994896 -4.0587206,4.7894066 l 8.2193386,-0.467056 0.0356,-12.53459637 z"
       style="opacity:0.999;fill:#7137c8;stroke:#7137c8;stroke-width:0.264583px;stroke-linecap:butt;stroke-linejoin:miter;stroke-opacity:1" />
    <path
       sodipodi:nodetypes="cccccsssscc"
       id="path1318"
       d="M 4.0348958,10.649479 4.8121093,8.4335937 6.498828,6.4657552 7.7225259,5.9531249 8.4997395,6.713802 c 0,0 0.1488277,2.1332031 0.1157557,2.2654947 -0.033073,0.1322917 -0.824608,2.2693903 -0.9095057,2.3151043 l -0.8598958,0.46302 c -0.6163118,0.331861 -1.6043044,0.3158 -1.7694011,0.165365 -0.164446,-0.149842 -0.760677,-0.677995 -0.760677,-0.677995 z"
       style="fill:#7137c8;fill-opacity:1;stroke:#7137c8;stroke-width:0.264583px;stroke-linecap:butt;stroke-linejoin:miter;stroke-opacity:1" />
    <path
       id="path1320"
       d="m 2.4473958,12.7 0.5953125,-0.84336 1.4552083,0.876433 z"
       style="fill:#7137c8;fill-opacity:1;stroke:#7137c8;stroke-width:0.264583px;stroke-linecap:butt;stroke-linejoin:miter;stroke-opacity:1" />
  </g>
  <g
     inkscape:label="Layer 3"
     id="layer3"
     inkscape:groupmode="layer">
    <path
       transform="matrix(1.0341946,0,0,1,-0.04347612,0)"
       id="path1322"
       d="m 2.2536524,12.044726 -0.1364196,0.252461 -0.2455554,0.360574 -0.3274071,0.329794 -0.2728393,0.172058 0.45837,-0.161588 0.3874318,-0.307949 0.2073578,-0.226149 0.1364197,-0.241548 0.1800739,-0.332813 -0.049111,-0.377525 -0.229185,0.228128 z"
       style="fill:#000000;fill-opacity:0;stroke:#000000;stroke-width:0.05;stroke-linecap:butt;stroke-linejoin:miter;stroke-miterlimit:4;stroke-dasharray:none;stroke-opacity:0;filter:url(#filter1297)" />
  </g>
</svg>
